<svg xmlns="http://www.w3.org/2000/svg" xmlns:xlink="http://www.w3.org/1999/xlink" version="1.1" x="0px" y="0px" viewBox="0 0 32 32" fill="#75492B" enable-background="new 0 0 32 32" xml:space="preserve"><g display="none"><rect x="-153.339" y="-186.667" display="inline" fill="#75492B" width="473.333" height="236"></rect></g><g display="none"><g display="inline"><path fill="#75492B" d="M32,32H0V0h32l-5.054,5.172H5.054v21.657h21.892L32,32z"></path></g><g display="inline"><rect x="9.962" y="9.962" fill="#75492B" width="12.076" height="12.076"></rect></g></g><g><g><path d="M29.625,1l-3.099,3.172H5.054h-1v1v21.657v1h1h21.472L29.625,31H1V1H29.625 M32,0H0v32h32l-5.054-5.172H5.054V5.172    h21.893L32,0L32,0z"></path></g><g><path d="M21.038,10.962v10.076H10.962V10.962H21.038 M22.038,9.962H9.962v12.076h12.076V9.962L22.038,9.962z"></path></g></g><g display="none"><g display="inline"><g><polygon fill="#75492B" points="0.5,31.5 0.5,0.5 30.812,0.5 26.735,4.672 4.553,4.672 4.553,27.328 26.735,27.328 30.812,31.5         "></polygon></g><g><path d="M29.625,1l-3.099,3.172H5.054h-1v1v21.657v1h1h21.472L29.625,31H1V1H29.625 M32,0H0v32h32l-5.054-5.172H5.054V5.172     h21.893L32,0L32,0z"></path></g></g><g display="inline"><rect x="10.462" y="10.462" fill="#75492B" width="11.076" height="11.076"></rect><g><path d="M21.038,10.962v10.076H10.962V10.962H21.038 M22.038,9.962H9.962v12.076h12.076V9.962L22.038,9.962z"></path></g></g></g><g display="none"><path display="inline" fill="#75492B" d="M32,32H0V0h32l-5.054,5.172H5.054v21.657h21.892L32,32z"></path><rect x="9.962" y="9.962" display="inline" fill="#75492B" width="12.076" height="12.076"></rect></g></svg>